<svg data-v-0dd9719b="" version="1.0" xmlns="http://www.w3.org/2000/svg" xmlns:xlink="http://www.w3.org/1999/xlink" width="340" height="250" viewBox="0 0 340.000000 250.000000" preserveAspectRatio="xMidYMid meet" color-interpolation-filters="sRGB" style="margin: auto;"> <rect data-v-0dd9719b="" x="0" y="0" width="100%" height="100%" fill="#FFFFFF" fill-opacity="1" class="background"></rect> <!----> <g data-v-0dd9719b="" fill="#1CA3E4" class="icon-text-wrapper icon-svg-group iconsvg" transform="translate(47.30999755859375,83.3078498840332)"><g class="iconsvg-imagesvg" transform="translate(0,0)" fill="#1CA3E4"><g fill="#1CA3E4"><rect fill="#1CA3E4" fill-opacity="0" stroke-width="2px" x="0" y="0" width="60.00000000000001" height="83.38429039968871" class="image-rect"></rect> <svg x="0" y="0" width="60.00000000000001" height="83.38429039968871" filtersec="colorsb4958749943" class="image-svg-svg primary" style="overflow: visible;" fill="#1CA3E4"><svg xmlns="http://www.w3.org/2000/svg" viewBox="0 -0.01248161494731903 84.16980743408203 116.97471618652344" fill="#1CA3E4"><title>资源 114</title><path d="M81.66 29.06C85.43 39.08 85 49 80.05 58.29c-7.42 14-19.34 21.1-35.21 21.36-5.08.08-10.16-.15-15.24-.21-3.17 0-3.25.07-3.27 3.17-.08 10.4-.22 20.81-.19 31.22 0 2.4-.76 3.18-3.15 3.13-6.41-.13-12.83-.11-19.24 0-2.19 0-2.9-.73-2.87-2.9.1-7.65-.1-15.32.07-23 .33-15.73 12.92-30.62 28.39-33.32 4.06-.71 8.31-.28 12.46-.44 5.15-.2 10.36 0 15.43-.78 13.59-2 21.88-12.83 24.09-25.33.12-.7.23-1.42.34-2.13z" fill="#1CA3E4"></path><path d="M57.27 52.26c3.91-2.78 6.73-6.27 7.59-11 1.82-10.06-5.5-18.6-15.9-18.81-6.07-.13-12.19 0-18.2-.73-8.88-1.08-17.14-4.13-24-10.15C3.39 8.61.8 5.11 0 .16 1 .1 1.76 0 2.54 0H50a32.46 32.46 0 0 1 14.77 3.1c8.49 4.28 12.73 11 13.12 20.69.53 13.16-8.4 24-17.84 27.5-.91.38-1.85.71-2.78.97z" fill="#183883"></path></svg></svg> <!----></g></g> <g transform="translate(67,24.55215072631836)" fill="#1CA3E4"><g data-gra="path-name" fill-rule="" class="tp-name iconsvg-namesvg" fill="#1CA3E4"><g transform="scale(1)" fill="#1CA3E4"><g fill="#1CA3E4"><path d="M17.37-26.75Q21.58-26.75 23.86-24.91 26.14-23.07 26.14-19.71L26.14-19.71Q26.14-16.45 24.66-14.01 23.19-11.56 20.4-10.24 17.6-8.92 13.81-8.92L13.81-8.92 6.01-8.92 4.21 0 2.6 0 7.96-26.75 17.37-26.75ZM14.04-10.48Q18.94-10.48 21.75-12.88 24.57-15.27 24.57-19.36L24.57-19.36Q24.57-22.16 22.61-23.67 20.66-25.18 17.03-25.18L17.03-25.18 9.26-25.18 6.31-10.48 14.04-10.48ZM36.47 0.11Q33.9 0.11 31.91-0.99 29.92-2.1 28.81-4.11 27.7-6.12 27.7-8.69L27.7-8.69Q27.7-11.82 29.14-14.43 30.57-17.03 33.06-18.54 35.55-20.05 38.49-20.05L38.49-20.05Q41.71-20.05 43.95-18.35 46.19-16.65 46.84-13.78L46.84-13.78 48.06-19.94 49.63-19.94 45.65 0 44.08 0 45-4.4Q43.55-2.26 41.31-1.07 39.07 0.11 36.47 0.11L36.47 0.11ZM36.85-1.38Q39.38-1.38 41.5-2.68 43.62-3.98 44.87-6.2 46.11-8.42 46.11-11.06L46.11-11.06Q46.11-13.24 45.15-14.94 44.2-16.65 42.47-17.58 40.75-18.52 38.53-18.52L38.53-18.52Q36.05-18.52 33.92-17.22 31.8-15.92 30.55-13.68 29.31-11.44 29.31-8.8L29.31-8.8Q29.31-6.62 30.27-4.94 31.22-3.25 32.93-2.32 34.63-1.38 36.85-1.38L36.85-1.38ZM70.06-19.94L71.79-19.94 57.97 2.95Q56.63 5.17 55.01 6.31 53.38 7.46 51.7 7.46L51.7 7.46Q49.44 7.46 48.02 6.28L48.02 6.28 48.9 4.97Q49.94 5.85 51.62 5.85L51.62 5.85Q53.04 5.85 54.36 4.9 55.68 3.94 56.79 2.22L56.79 2.22 58.2 0 53.92-19.94 55.6-19.94 59.27-1.8 70.06-19.94Z" transform="translate(-2.5999999046325684, 26.81999969482422)" fill="#1CA3E4"></path></g> <!----> <!----> <!----> <!----> <!----> <!----> <g data-gra="path-name-1" fill="#183883" transform="translate(72.19000244140625,0)"><g transform="scale(1)" fill="#183883"><path d="M29.62-7.31L37.88-26.82 45.08-26.82 31.8 0 24.57 0 22.77-18.33 14.77 0 7.58 0 3.21-26.82 10.71-26.82 12.59-7.31 20.89-26.79 27.74-26.82 29.62-7.31ZM48.02 0.27Q45.69 0.27 43.85-0.88 42.02-2.03 41-4.09 39.99-6.16 39.99-8.84L39.99-8.84Q39.99-12.21 41.42-14.96 42.86-17.72 45.36-19.32 47.87-20.93 50.89-20.93L50.89-20.93Q55.56-20.93 57.32-17.26L57.32-17.26 58.01-20.7 64.78-20.7 60.69 0 53.88 0 54.38-2.45Q51.66 0.27 48.02 0.27L48.02 0.27ZM50.66-4.97Q52.08-4.97 53.3-5.78 54.53-6.58 55.24-7.96 55.94-9.34 55.94-10.98L55.94-10.98Q55.94-12.93 54.89-14.1 53.84-15.27 52.08-15.27L52.08-15.27Q50.66-15.27 49.46-14.45 48.25-13.62 47.54-12.24 46.84-10.87 46.84-9.26L46.84-9.26Q46.84-7.31 47.89-6.14 48.94-4.97 50.66-4.97L50.66-4.97ZM82.81-20.7L89.73-20.7 77.83 0 70.87 0 67.23-20.7 74.16-20.7 75.54-6.31 82.81-20.7ZM99.34-20.89Q102.4-20.89 104.67-19.74 106.95-18.6 108.18-16.51 109.4-14.43 109.4-11.63L109.4-11.63Q109.4-10.33 109.02-8.53L109.02-8.53 94.32-8.53Q94.52-6.77 95.66-5.82 96.81-4.86 98.76-4.86L98.76-4.86Q101.33-4.86 103.51-6.58L103.51-6.58 106.91-2.87Q103.47 0.27 98.49 0.27L98.49 0.27Q95.2 0.27 92.76-0.88 90.31-2.03 88.97-4.17 87.63-6.31 87.63-9.15L87.63-9.15Q87.63-12.47 89.14-15.15 90.65-17.83 93.33-19.36 96.01-20.89 99.34-20.89L99.34-20.89ZM102.93-12.17Q102.97-12.4 102.97-12.9L102.97-12.9Q102.97-14.35 102.09-15.21 101.21-16.07 99.72-16.07L99.72-16.07Q98.11-16.07 96.81-15 95.51-13.93 94.82-12.17L94.82-12.17 102.93-12.17Z" transform="translate(-3.2100000381469727, 26.81999969482422)" fill="#183883"></path></g></g></g></g> <!----></g></g><defs v-gra="od"></defs></svg>