<svg xmlns:xlink="http://www.w3.org/1999/xlink" xmlns="http://www.w3.org/2000/svg" x="0" y="0" width="60.00000000000001" height="83.38429039968871" filtersec="colorsb4958749943" class="image-svg-svg primary" style="overflow: visible;" fill="#1CA3E4"><svg xmlns="http://www.w3.org/2000/svg" viewBox="0 -0.01248161494731903 84.16980743408203 116.97471618652344" fill="#1CA3E4"><title>资源 114</title><path d="M81.66 29.06C85.43 39.08 85 49 80.05 58.29c-7.42 14-19.34 21.1-35.21 21.36-5.08.08-10.16-.15-15.24-.21-3.17 0-3.25.07-3.27 3.17-.08 10.4-.22 20.81-.19 31.22 0 2.4-.76 3.18-3.15 3.13-6.41-.13-12.83-.11-19.24 0-2.19 0-2.9-.73-2.87-2.9.1-7.65-.1-15.32.07-23 .33-15.73 12.92-30.62 28.39-33.32 4.06-.71 8.31-.28 12.46-.44 5.15-.2 10.36 0 15.43-.78 13.59-2 21.88-12.83 24.09-25.33.12-.7.23-1.42.34-2.13z" fill="#1CA3E4"></path><path d="M57.27 52.26c3.91-2.78 6.73-6.27 7.59-11 1.82-10.06-5.5-18.6-15.9-18.81-6.07-.13-12.19 0-18.2-.73-8.88-1.08-17.14-4.13-24-10.15C3.39 8.61.8 5.11 0 .16 1 .1 1.76 0 2.54 0H50a32.46 32.46 0 0 1 14.77 3.1c8.49 4.28 12.73 11 13.12 20.69.53 13.16-8.4 24-17.84 27.5-.91.38-1.85.71-2.78.97z" fill="#183883"></path></svg></svg>